<svg width="35" height="35" xmlns="http://www.w3.org/2000/svg" xmlns:xlink="http://www.w3.org/1999/xlink"><g transform="translate(-3098 -527)"><clipPath id="a" clip-rule="evenodd"><path d="M3098 527h35v35h-35v-35z" fill="#FFF"/></clipPath><g clip-path="url(#a)"><use xlink:href="#path0_fill" transform="translate(3113.56 534)"/><use xlink:href="#path1_fill" transform="translate(3098 534)"/><mask id="b"><path fill="#fff" transform="translate(3098 534)" d="M-3-3h25v27H-3z"/><use xlink:href="#path1_fill" transform="translate(3098 534)"/></mask><g mask="url(#b)"><use xlink:href="#path2_stroke_2x" transform="translate(3098 534)" fill="#FFF"/></g></g></g><defs><path id="path0_fill" d="M7.35 20.59v-6.6l.13-.07c.09.34.18.43.28.65l2.99 6.02h8.69l-4.68-6.95a2.91 2.91 0 0 0-1.09-.95v-.19a4.97 4.97 0 0 0 2.87-1.63 5.52 5.52 0 0 0 1.15-3.68c0-2.44-.9-4.01-1.96-5.06C13.83.25 11.56 0 9.38 0H0v20.59h7.35zm0-14.94h1.3c.63 0 1.04.28 1.29.55.28.31.4.78.4 1.24 0 .65-.28 1.05-.53 1.26-.47.4-1.15.47-1.59.47h-.87V5.65z"/><path id="path1_fill" d="M7.35 20.59v-6.2H11c1.6 0 3.46-.2 5.11-1.67 1.68-1.52 2.06-3.46 2.06-5.16 0-1.63-.4-3.73-2.12-5.4C15.17 1.33 13.27 0 9.97 0H0v20.59h7.35zm0-14.94h1.37c.56 0 1.18.18 1.53.46.28.22.56.62.56 1.27 0 .61-.22 1.02-.5 1.26-.53.53-1.3.56-1.68.56H7.35V5.65z"/><path id="path2_stroke_2x" d="M7.35 20.59v3h3v-3h-3zm0-6.2v-3h-3v3h3zm8.75-1.67l2 2.23-2-2.23zm-.06-10.56l2.1-2.15h-.02v-.02l-2.08 2.17zM0 0v-3h-3v3h3zm0 20.59h-3v3h3v-3zM7.35 5.65v-3h-3v3h3zm2.9.46l-1.9 2.33.04.03.03.02 1.83-2.38zm.06 2.53L8.33 6.4l-.07.06-.06.06 2.11 2.13zm-2.96.56h-3v3h3v-3zm3 11.39v-6.2h-6v6.2h6zm-3-3.2H11v-6H7.35v6zm3.64 0c1.82 0 4.62-.2 7.12-2.44l-4.01-4.47c-.81.73-1.74.9-3.1.9v6zm7.12-2.44c2.58-2.32 3.05-5.27 3.05-7.39h-6c0 1.28-.28 2.22-1.06 2.93l4 4.46zm3.05-7.39c0-2.09-.52-5.11-3.03-7.55l-4.18 4.3c.92.9 1.2 2.07 1.2 3.25h6zM18.1 0C16.78-1.28 14.17-3 9.97-3v6c2.4 0 3.58.93 4 1.33L18.1-.01zM9.97-3H0v6h9.97v-6zM-3 0v20.59h6V0h-6zm3 23.59h7.35v-6H0v6zM7.35 8.65h1.37v-6H7.35v6zm1.37 0H8.7l-.08-.03a1.42 1.42 0 0 1-.26-.18l3.78-4.66a5.6 5.6 0 0 0-3.42-1.13v6zm-.3-.16a1.63 1.63 0 0 1-.47-.56 1.28 1.28 0 0 1-.14-.55h6c0-1.63-.75-2.89-1.73-3.64L8.42 8.49zM7.8 7.38c0-.05 0-.2.1-.42.09-.2.23-.4.42-.57l3.96 4.5a4.6 4.6 0 0 0 1.52-3.51h-6zm.39-.87c.24-.24.48-.3.51-.31h-.08v6c.36 0 2.31.04 3.8-1.43L8.2 6.51zm.43-.31H7.35v6h1.28v-6zm1.72 3V5.65h-6V9.2h6z"/></defs></svg>