<?xml version="1.0" standalone="no"?>
<!DOCTYPE svg PUBLIC "-//W3C//DTD SVG 20010904//EN"
 "http://www.w3.org/TR/2001/REC-SVG-20010904/DTD/svg10.dtd">
<svg version="1.0" xmlns="http://www.w3.org/2000/svg"
 width="512.000000pt" height="512.000000pt" viewBox="0 0 512.000000 512.000000"
 preserveAspectRatio="xMidYMid meet">
<metadata>
Created by potrace 1.11, written by Peter Selinger 2001-2013
</metadata>
<g transform="translate(0.000000,512.000000) scale(0.100000,-0.100000)"
fill="#000000" stroke="none">
<path d="M412 5100 c-103 -27 -166 -64 -247 -145 -82 -82 -118 -144 -145 -251
-20 -76 -20 -118 -20 -2144 0 -2026 0 -2068 20 -2144 27 -107 63 -169 145
-251 82 -82 144 -118 251 -145 76 -20 118 -20 2144 -20 2026 0 2068 0 2144 20
107 27 169 63 251 145 82 82 118 144 145 251 20 76 20 118 20 2144 0 2026 0
2068 -20 2144 -27 107 -63 169 -145 251 -82 82 -144 118 -251 145 -76 20 -117
20 -2148 19 -2007 0 -2073 -1 -2144 -19z m1588 -1257 c390 -96 633 -321 728
-672 23 -87 25 -114 25 -281 0 -159 -3 -196 -21 -265 -66 -240 -214 -423 -425
-524 -157 -76 -267 -91 -654 -91 l-283 0 0 -400 0 -400 -470 0 -470 0 0 1330
0 1331 743 -4 c712 -3 745 -4 827 -24z m1969 3 c235 -55 401 -154 533 -316
254 -311 263 -833 19 -1092 -71 -76 -148 -124 -255 -160 -45 -15 -82 -31 -84
-36 -2 -6 12 -19 30 -30 63 -39 107 -99 407 -549 l301 -453 -558 0 -559 0
-206 421 c-114 231 -207 424 -207 430 0 5 -4 9 -10 9 -7 0 -10 -150 -10 -430
l0 -430 -470 0 -470 0 0 279 0 279 74 41 c314 172 508 445 583 817 26 136 24
415 -6 554 -54 252 -153 449 -316 628 l-58 63 594 -4 c518 -3 603 -6 668 -21z"/>
<path d="M1370 2911 l0 -231 103 0 c208 0 312 58 337 188 20 110 -22 196 -119
240 -49 23 -72 27 -188 30 l-133 4 0 -231z"/>
<path d="M3370 2915 l0 -225 91 0 c113 0 166 13 214 53 50 41 75 97 75 172 0
73 -24 129 -73 172 -48 42 -91 53 -209 53 l-98 0 0 -225z"/>
</g>
</svg>
