<?xml version="1.0" standalone="no"?>
<!DOCTYPE svg PUBLIC "-//W3C//DTD SVG 20010904//EN"
 "http://www.w3.org/TR/2001/REC-SVG-20010904/DTD/svg10.dtd">
<svg version="1.0" xmlns="http://www.w3.org/2000/svg"
 width="700.000000pt" height="700.000000pt" viewBox="0 0 700.000000 700.000000"
 preserveAspectRatio="xMidYMid meet">
<metadata>
Created by potrace 1.11, written by Peter Selinger 2001-2013
</metadata>
<g transform="translate(0.000000,700.000000) scale(0.100000,-0.100000)"
fill="#000000" stroke="none">
<path d="M3360 5353 c-115 -9 -307 -49 -429 -89 -294 -96 -539 -250 -751 -470
-281 -292 -448 -632 -506 -1034 -23 -160 -16 -451 15 -604 150 -741 706 -1302
1449 -1462 162 -35 454 -44 622 -20 464 68 870 294 1165 647 552 661 577 1605
63 2293 -379 507 -999 788 -1628 739z"/>
</g>
</svg>
